<?xml version="1.0" encoding="utf-8"?>
<!-- Generator: Avocode 2.6.0 - http://avocode.com -->
<svg height="22" width="23" xmlns:xlink="http://www.w3.org/1999/xlink" xmlns="http://www.w3.org/2000/svg" viewBox="0 0 23 22">
    <path fill="#ffffff" fill-rule="evenodd" d="M 11.71 22 C 5.47 22 0.41 17.07 0.41 11 C 0.41 4.92 5.47 0 11.71 0 C 17.95 0 23.01 4.92 23.01 11 C 23.01 17.07 17.95 22 11.71 22 Z M 18.61 6.78 C 17.97 7.07 16.97 7.44 16.78 7.38 C 16.09 6.51 14.68 6.46 13.68 6.78 C 12.69 7.09 11.75 8.26 12.02 9.7 C 8.46 9.58 6.27 7.08 6.27 7.08 C 6.27 7.08 5.1 8.88 7.04 10.46 C 6.5 10.45 6.08 10.21 5.88 10.1 C 5.88 11.39 6.78 12.42 7.98 12.63 C 7.95 12.77 7.26 12.75 6.88 12.73 C 7.07 13.71 8.41 14.53 9.42 14.49 C 8.43 15.29 6.75 15.69 5.38 15.55 C 6.3 16.09 7.95 16.96 10.69 16.66 C 13.44 16.35 15.46 14.79 16.56 13.08 C 17.66 11.37 17.61 9.1 17.61 9.1 C 17.61 9.1 18.87 8.22 18.94 7.79 C 18.24 8.11 17.66 8.11 17.5 8.14 C 18.23 7.63 18.54 7.14 18.61 6.78 Z" />
</svg>